<?xml version="1.0" standalone="no"?>
<!DOCTYPE svg PUBLIC "-//W3C//DTD SVG 20010904//EN"
 "http://www.w3.org/TR/2001/REC-SVG-20010904/DTD/svg10.dtd">
<svg version="1.0" xmlns="http://www.w3.org/2000/svg"
 width="512.000000pt" height="512.000000pt" viewBox="0 0 512.000000 512.000000"
 preserveAspectRatio="xMidYMid meet">
<metadata>
Created by potrace 1.14, written by Peter Selinger 2001-2017
</metadata>
<g transform="translate(0.000000,512.000000) scale(0.100000,-0.100000)"
fill="#000000" stroke="none">
<path d="M1309 3953 c-5 -15 -9 -47 -7 -72 l3 -45 153 -40 152 -39 -2 -1200
-3 -1200 -40 -14 c-22 -8 -94 -27 -160 -42 l-120 -27 -5 -39 c-3 -22 -3 -53
-1 -68 l3 -28 202 8 c254 10 412 10 648 0 l187 -8 10 38 c14 49 14 90 0 98 -5
4 -74 24 -152 44 l-142 37 -3 522 -2 522 129 0 130 0 380 -515 c210 -283 381
-519 381 -524 0 -16 -105 -50 -208 -68 -53 -9 -100 -22 -104 -27 -4 -6 -8 -37
-8 -68 0 -57 1 -58 28 -58 15 0 146 5 292 11 194 7 333 7 519 -1 165 -8 256
-9 263 -2 5 5 12 37 15 71 6 59 5 61 -18 61 -47 0 -238 49 -292 74 -53 26 -62
36 -541 687 -268 363 -488 664 -489 669 -2 10 760 916 818 973 70 67 198 119
381 153 17 3 23 13 27 46 3 23 3 55 0 71 -5 25 -9 28 -32 23 -56 -12 -544 -18
-706 -8 -105 7 -174 7 -179 2 -5 -6 -12 -37 -14 -69 -4 -57 -3 -60 19 -65 155
-30 200 -40 237 -57 24 -10 42 -23 40 -28 -1 -5 -208 -261 -458 -569 l-455
-561 -77 0 -78 -1 0 569 0 570 53 19 c44 17 113 33 244 58 25 5 37 46 31 105
l-3 34 -130 -5 c-193 -7 -717 -6 -818 3 l-87 7 -11 -27z"/>
</g>
</svg>
